<svg width="63" height="32" viewBox="0 0 63 32" fill="none" xmlns="http://www.w3.org/2000/svg">
<rect x="0.5" y="0.499969" width="62" height="31" rx="3.5" fill="white"/>
<path d="M18.0234 18.0312H13.2578L12.1875 21H10.6406L14.9844 9.62497H16.2969L20.6484 21H19.1094L18.0234 18.0312ZM13.7109 16.7968H17.5781L15.6406 11.4765L13.7109 16.7968ZM27.8828 10.5V12.5468H29.4609V13.664H27.8828V18.9062C27.8828 19.2448 27.9531 19.5 28.0938 19.6718C28.2344 19.8385 28.474 19.9218 28.8125 19.9218C28.9792 19.9218 29.2083 19.8906 29.5 19.8281V21C29.1198 21.1041 28.75 21.1562 28.3906 21.1562C27.7448 21.1562 27.2578 20.9609 26.9297 20.5703C26.6016 20.1797 26.4375 19.625 26.4375 18.9062V13.664H24.8984V12.5468H26.4375V10.5H27.8828ZM30.6172 16.6953C30.6172 15.8672 30.7786 15.1224 31.1016 14.4609C31.4297 13.7994 31.8828 13.289 32.4609 12.9297C33.0443 12.5703 33.7083 12.3906 34.4531 12.3906C35.6042 12.3906 36.5339 12.789 37.2422 13.5859C37.9557 14.3828 38.3125 15.4427 38.3125 16.7656V16.8672C38.3125 17.6901 38.1536 18.4297 37.8359 19.0859C37.5234 19.7369 37.0729 20.2448 36.4844 20.6093C35.901 20.9739 35.2292 21.1562 34.4688 21.1562C33.3229 21.1562 32.3932 20.7578 31.6797 19.9609C30.9714 19.164 30.6172 18.1093 30.6172 16.7968V16.6953ZM32.0703 16.8672C32.0703 17.8047 32.2865 18.5573 32.7188 19.125C33.1562 19.6927 33.7396 19.9765 34.4688 19.9765C35.2031 19.9765 35.7865 19.6901 36.2188 19.1172C36.651 18.539 36.8672 17.7317 36.8672 16.6953C36.8672 15.7682 36.6458 15.0182 36.2031 14.4453C35.7656 13.8672 35.1823 13.5781 34.4531 13.5781C33.7396 13.5781 33.1641 13.8619 32.7266 14.4297C32.2891 14.9974 32.0703 15.8099 32.0703 16.8672ZM45.4453 19.7734H51.9531V21H43.6719V19.875L49.9062 10.8593H43.7734V9.62497H51.7031V10.7265L45.4453 19.7734Z" fill="#3B3B3B"/>
<rect x="0.5" y="0.499969" width="62" height="31" rx="3.5" stroke="#B8B8B8"/>
</svg>
