<svg width="10" height="15" viewBox="0 0 10 15" fill="none" xmlns="http://www.w3.org/2000/svg">
<path d="M2 12.5H0.5V9C0.5 6.515 2.515 4.5 5 4.5C7.485 4.5 9.5 6.515 9.5 9V12.5H8" stroke="#3B3B3B" stroke-miterlimit="10" stroke-linecap="round" stroke-linejoin="round"/>
<path d="M0.5 2.5H3" stroke="#3B3B3B" stroke-miterlimit="10" stroke-linecap="round" stroke-linejoin="round"/>
<path d="M9.5 2.5H7" stroke="#3B3B3B" stroke-miterlimit="10" stroke-linecap="round" stroke-linejoin="round"/>
<path d="M2 12.5C2 11.672 2.672 11 3.5 11L6.5 11C7.328 11 8 11.672 8 12.5C8 13.328 7.328 14 6.5 14L3.5 14C2.672 14 2 13.328 2 12.5Z" stroke="#3B3B3B" stroke-miterlimit="10" stroke-linecap="round" stroke-linejoin="round"/>
<path d="M5 4.5C6.10457 4.5 7 3.60457 7 2.5C7 1.39543 6.10457 0.5 5 0.5C3.89543 0.5 3 1.39543 3 2.5C3 3.60457 3.89543 4.5 5 4.5Z" stroke="#3B3B3B" stroke-miterlimit="10" stroke-linecap="round" stroke-linejoin="round"/>
</svg>
