<svg width="358" height="98" viewBox="0 0 358 98" fill="none" xmlns="http://www.w3.org/2000/svg">
<g clip-path="url(#clip0_3901_4514)">
<rect width="358" height="98" fill="#3B3B3B"/>
<g opacity="0.15">
<path d="M301.999 -10.7709C334.993 -10.7709 361.77 16.0065 361.77 49.0001C361.77 81.9937 334.993 108.771 301.999 108.771C269.006 108.771 242.229 81.9937 242.229 49.0001C242.228 16.0065 269.006 -10.7709 301.999 -10.7709Z" stroke="#EDEDED" stroke-width="4.12214"/>
<path d="M308.885 -3.27408V2.86404C316.609 4.00625 323.716 7.03057 329.721 11.4754L334.055 7.1472C326.889 1.64779 318.276 -2.04878 308.885 -3.27408ZM295.082 -3.25476C285.696 -2.02239 277.091 1.68188 269.93 7.1794L274.239 11.5076H274.259C280.26 7.05988 287.361 4.01289 295.082 2.86404V-3.25476ZM298.135 9.25335V29.9156C295.632 30.4209 293.292 31.3961 291.237 32.7624L276.623 18.1546L271.154 23.6229L285.781 38.25C284.419 40.3027 283.426 42.6365 282.922 45.1353H262.253V52.8643H282.922C283.426 55.3618 284.42 57.6782 285.781 59.7302L271.154 74.3638L276.623 79.8321L291.237 65.2178C293.292 66.5841 295.632 67.5722 298.135 68.0775V88.7462H305.864V68.0775C308.369 67.5717 310.692 66.5668 312.749 65.1985L327.376 79.8321L332.845 74.3638L318.217 59.7302C319.579 57.6786 320.579 55.3612 321.084 52.8643H341.746V45.1353H321.084C320.579 42.6371 319.58 40.3024 318.217 38.25L332.845 23.6229L327.376 18.1546L312.749 32.7817C310.692 31.4134 308.369 30.4214 305.864 29.9156V9.25335H298.135ZM343.82 16.9115L339.492 21.2397C343.948 27.2467 346.986 34.3706 348.135 42.1016H354.273C353.041 32.7053 349.33 24.0786 343.82 16.9115ZM260.16 16.9437C254.661 24.1039 250.957 32.7159 249.726 42.1016H255.87C257.017 34.3831 260.048 27.2793 264.494 21.2784L260.16 16.9437ZM249.726 55.8979C250.953 65.2823 254.651 73.8938 260.147 81.0558L264.475 76.7211C260.033 70.7211 257.014 63.6153 255.87 55.8979H249.726ZM348.135 55.8979C346.986 63.6239 343.946 70.7333 339.492 76.7404L343.82 81.0687C349.325 73.9041 353.039 65.2887 354.273 55.8979H348.135ZM274.239 86.4919L269.911 90.8201C277.074 96.3273 285.692 100.039 295.082 101.274V95.129C287.357 93.9784 280.242 90.9449 274.239 86.4919ZM329.721 86.5048C323.714 90.9539 316.612 94.0048 308.885 95.1484V101.274C318.277 100.047 326.889 96.3387 334.055 90.8394L329.74 86.5048H329.721Z" fill="#EDEDED"/>
</g>
</g>
<defs>
<clipPath id="clip0_3901_4514">
<rect width="358" height="98" fill="white"/>
</clipPath>
</defs>
</svg>
