<svg width="216" height="98" viewBox="0 0 216 98" fill="none" xmlns="http://www.w3.org/2000/svg">
<g clip-path="url(#clip0_3901_3277)">
<rect width="216" height="98" fill="#2F855A"/>
<g opacity="0.15">
<path fill-rule="evenodd" clip-rule="evenodd" d="M157.271 66.88C156.185 65.2947 150.39 56.8373 150.39 56.8373L154.806 68.9832L141.115 70.9708L154.806 72.9584L149.506 83.3375C149.506 83.3375 156.119 76.3863 157.053 75.404C156.668 90.4543 156.573 94.1581 156.573 94.1581C156.573 94.1581 122.787 78.4791 141.557 43.8082C141.557 43.8082 118.149 17.9709 139.348 2.07105C139.348 2.07105 103.133 23.9332 126.099 61.4749C126.099 61.4749 107.108 42.9251 117.045 24.1539C117.045 24.1539 99.8204 48.4458 120.799 75.1668C120.799 75.1668 115.057 71.6331 109.979 58.1625C109.979 58.1625 113.683 98.2643 158.549 98.7905C158.549 98.7957 158.549 98.7958 158.549 98.7958C158.699 98.7958 158.848 98.7948 158.997 98.7943C159.145 98.7953 159.294 98.7958 159.444 98.7958C159.444 98.7958 159.444 98.7957 159.444 98.7905C204.31 98.2643 208.015 58.1625 208.015 58.1625C202.936 71.6331 197.194 75.1668 197.194 75.1668C218.173 48.4458 200.948 24.1539 200.948 24.1539C210.885 42.9251 191.894 61.4749 191.894 61.4749C214.86 23.9332 178.645 2.07105 178.645 2.07105C199.844 17.9709 176.436 43.8082 176.436 43.8082C195.207 78.4791 161.42 94.1581 161.42 94.1581C161.42 94.1581 161.325 90.4543 160.94 75.404C161.875 76.3863 168.487 83.3375 168.487 83.3375L163.187 72.9584L176.878 70.9708L163.187 68.9832L167.603 56.8373C167.603 56.8373 161.808 65.2947 160.722 66.88C160.23 47.6557 159.01 -0.0432382 159.004 -0.268365C159.002 -0.797344 159.002 -0.800232 159.002 -0.800232C159.002 -0.800232 159.002 -0.799761 158.997 -0.580378C158.991 -0.799729 158.991 -0.800232 158.991 -0.800232C158.991 -0.800232 158.991 -0.797341 158.989 -0.268365C158.979 0.107809 157.762 47.6992 157.271 66.88" fill="#EDEDED"/>
<path d="M159 -14.2811C124.051 -14.2811 95.7188 14.0505 95.7188 49C95.7188 83.9494 124.051 112.282 159 112.282C193.95 112.282 222.281 83.9494 222.281 49C222.281 14.0505 193.95 -14.2811 159 -14.2811V-14.2811Z" stroke="#EDEDED" stroke-width="0.0301341" stroke-miterlimit="10"/>
<path fill-rule="evenodd" clip-rule="evenodd" d="M159 -14.2811C124.051 -14.2811 95.7188 14.0511 95.7188 49C95.7188 83.9489 124.051 112.282 159 112.282C193.949 112.282 222.281 83.9489 222.281 49C222.281 14.0511 193.949 -14.2811 159 -14.2811ZM159 -6.70002C189.762 -6.70002 214.7 18.2382 214.7 49C214.7 79.7617 189.762 104.7 159 104.7C128.239 104.7 103.3 79.7617 103.3 49C103.3 18.2382 128.239 -6.70002 159 -6.70002Z" fill="#EDEDED"/>
</g>
</g>
<defs>
<clipPath id="clip0_3901_3277">
<rect width="216" height="98" fill="white"/>
</clipPath>
</defs>
</svg>
