<svg width="358" height="98" viewBox="0 0 358 98" fill="none" xmlns="http://www.w3.org/2000/svg">
<g clip-path="url(#clip0_3901_4460)">
<rect width="358" height="98" fill="#C53030"/>
<g opacity="0.15">
<path d="M246.081 47.684C246.741 30.1627 255.621 14.0025 271.853 3.32383C271.901 3.3418 272.322 3.18866 272.13 3.55224C270.844 4.74446 247.727 32.0525 269.005 53.6077C269.005 53.6077 280.186 64.3556 288.855 54.1573C288.855 54.1573 297.41 43.0825 288.747 26.294C288.747 26.294 286.554 20.8121 278.654 17.4118L285.016 10.3918C285.016 10.3918 290.393 12.6987 294.556 18.9557C294.556 18.9557 294.778 12.3681 289.732 5.34844L299.597 -5.84364L309.362 5.24322C309.362 5.24322 304.871 11.6054 304.541 19.0609C304.541 19.0609 307.608 14.0145 314.192 10.3922L320.44 17.4122C320.44 17.4122 314.432 19.3919 310.408 26.2225C306.947 32.5513 304.283 46.0866 310.563 54.3891C310.563 54.3891 317.592 64.356 329.956 53.8009C329.956 53.8009 352.69 33.4316 327.625 3.9821C327.625 3.9821 326.255 2.77153 327.793 3.42942C338.871 11.4949 352.136 22.1313 353.506 48.6759C352.965 80.8652 331.41 103.844 299.933 103.844C269.114 103.844 245.156 78.125 246.081 47.684Z" fill="#EDEDED"/>
</g>
</g>
<defs>
<clipPath id="clip0_3901_4460">
<rect width="358" height="98" fill="white"/>
</clipPath>
</defs>
</svg>
