<svg width="112" height="32" viewBox="0 0 112 32" fill="none" xmlns="http://www.w3.org/2000/svg">
<rect width="112" height="32" rx="4" fill="white"/>
<path d="M22 20V17.5C22 17.1022 21.842 16.7206 21.5607 16.4393C21.2794 16.158 20.8978 16 20.5 16V16C20.1022 16 19.7206 16.158 19.4393 16.4393C19.158 16.7206 19 17.1022 19 17.5V21C19.0522 21.501 19.2136 21.9844 19.4728 22.4163C19.7319 22.8483 20.0825 23.2181 20.5 23.5H24L25.348 19.008C25.4473 18.6749 25.4587 18.3218 25.381 17.983L24.181 12.774C24.0663 12.2767 23.7658 11.842 23.341 11.559L22.5 11" stroke="#3B3B3B" stroke-linecap="round" stroke-linejoin="round"/>
<path d="M22.5 14.5V8.5H14.5V19.5H16.5" stroke="#3B3B3B" stroke-linecap="round" stroke-linejoin="round"/>
<path d="M43.6719 18.0312H38.9062L37.8359 21H36.2891L40.6328 9.625H41.9453L46.2969 21H44.7578L43.6719 18.0312ZM39.3594 16.7969H43.2266L41.2891 11.4766L39.3594 16.7969ZM49.1719 21H47.7266V9H49.1719V21ZM53.0625 21H51.6172V9H53.0625V21ZM67.9453 17.3906C67.8047 18.5938 67.3594 19.5234 66.6094 20.1797C65.8646 20.8307 64.8724 21.1562 63.6328 21.1562C62.2891 21.1562 61.2109 20.6745 60.3984 19.7109C59.5911 18.7474 59.1875 17.4583 59.1875 15.8438V14.75C59.1875 13.6927 59.375 12.763 59.75 11.9609C60.1302 11.1589 60.6667 10.5443 61.3594 10.1172C62.0521 9.6849 62.8542 9.46875 63.7656 9.46875C64.974 9.46875 65.9427 9.80729 66.6719 10.4844C67.401 11.1562 67.8255 12.0885 67.9453 13.2812H66.4375C66.3073 12.375 66.0234 11.7188 65.5859 11.3125C65.1536 10.9062 64.5469 10.7031 63.7656 10.7031C62.8073 10.7031 62.0547 11.0573 61.5078 11.7656C60.9661 12.474 60.6953 13.4818 60.6953 14.7891V15.8906C60.6953 17.125 60.9531 18.1068 61.4688 18.8359C61.9844 19.5651 62.7057 19.9297 63.6328 19.9297C64.4661 19.9297 65.1042 19.7422 65.5469 19.3672C65.9948 18.987 66.2917 18.3281 66.4375 17.3906H67.9453ZM74.9922 21C74.9089 20.8333 74.8411 20.5365 74.7891 20.1094C74.1172 20.8073 73.3151 21.1562 72.3828 21.1562C71.5495 21.1562 70.8646 20.9219 70.3281 20.4531C69.7969 19.9792 69.5312 19.3802 69.5312 18.6562C69.5312 17.776 69.8646 17.0938 70.5312 16.6094C71.2031 16.1198 72.1458 15.875 73.3594 15.875H74.7656V15.2109C74.7656 14.7057 74.6146 14.3047 74.3125 14.0078C74.0104 13.7057 73.5651 13.5547 72.9766 13.5547C72.4609 13.5547 72.0286 13.6849 71.6797 13.9453C71.3307 14.2057 71.1562 14.5208 71.1562 14.8906H69.7031C69.7031 14.4688 69.8516 14.0625 70.1484 13.6719C70.4505 13.276 70.8568 12.9635 71.3672 12.7344C71.8828 12.5052 72.4479 12.3906 73.0625 12.3906C74.0365 12.3906 74.7995 12.6354 75.3516 13.125C75.9036 13.6094 76.1901 14.2786 76.2109 15.1328V19.0234C76.2109 19.7995 76.3099 20.4167 76.5078 20.875V21H74.9922ZM72.5938 19.8984C73.0469 19.8984 73.4766 19.7812 73.8828 19.5469C74.2891 19.3125 74.5833 19.0078 74.7656 18.6328V16.8984H73.6328C71.862 16.8984 70.9766 17.4167 70.9766 18.4531C70.9766 18.9062 71.1276 19.2604 71.4297 19.5156C71.7318 19.7708 72.1198 19.8984 72.5938 19.8984ZM82.5625 13.8438C82.3438 13.8073 82.1068 13.7891 81.8516 13.7891C80.9036 13.7891 80.2604 14.1927 79.9219 15V21H78.4766V12.5469H79.8828L79.9062 13.5234C80.3802 12.7682 81.0521 12.3906 81.9219 12.3906C82.2031 12.3906 82.4167 12.4271 82.5625 12.5V13.8438ZM83.3906 16.7031C83.3906 15.4062 83.6979 14.3646 84.3125 13.5781C84.9271 12.7865 85.7318 12.3906 86.7266 12.3906C87.7161 12.3906 88.5 12.7292 89.0781 13.4062V9H90.5234V21H89.1953L89.125 20.0938C88.5469 20.8021 87.7422 21.1562 86.7109 21.1562C85.7318 21.1562 84.9323 20.7552 84.3125 19.9531C83.6979 19.151 83.3906 18.1042 83.3906 16.8125V16.7031ZM84.8359 16.8672C84.8359 17.8255 85.0339 18.5755 85.4297 19.1172C85.8255 19.6589 86.3724 19.9297 87.0703 19.9297C87.987 19.9297 88.6562 19.5182 89.0781 18.6953V14.8125C88.6458 14.0156 87.9818 13.6172 87.0859 13.6172C86.3776 13.6172 85.8255 13.8906 85.4297 14.4375C85.0339 14.9844 84.8359 15.7943 84.8359 16.8672ZM97.6953 18.7578C97.6953 18.3672 97.5469 18.0651 97.25 17.8516C96.9583 17.6328 96.4453 17.4453 95.7109 17.2891C94.9818 17.1328 94.401 16.9453 93.9688 16.7266C93.5417 16.5078 93.224 16.2474 93.0156 15.9453C92.8125 15.6432 92.7109 15.2839 92.7109 14.8672C92.7109 14.1745 93.0026 13.5885 93.5859 13.1094C94.1745 12.6302 94.9245 12.3906 95.8359 12.3906C96.7943 12.3906 97.5703 12.638 98.1641 13.1328C98.763 13.6276 99.0625 14.2604 99.0625 15.0312H97.6094C97.6094 14.6354 97.4401 14.2943 97.1016 14.0078C96.7682 13.7214 96.3464 13.5781 95.8359 13.5781C95.3099 13.5781 94.8984 13.6927 94.6016 13.9219C94.3047 14.151 94.1562 14.4505 94.1562 14.8203C94.1562 15.1693 94.2943 15.4323 94.5703 15.6094C94.8464 15.7865 95.3438 15.9557 96.0625 16.1172C96.7865 16.2786 97.3724 16.4714 97.8203 16.6953C98.2682 16.9193 98.599 17.1901 98.8125 17.5078C99.0312 17.8203 99.1406 18.2031 99.1406 18.6562C99.1406 19.4115 98.8385 20.0182 98.2344 20.4766C97.6302 20.9297 96.8464 21.1562 95.8828 21.1562C95.2057 21.1562 94.6068 21.0365 94.0859 20.7969C93.5651 20.5573 93.1562 20.224 92.8594 19.7969C92.5677 19.3646 92.4219 18.8984 92.4219 18.3984H93.8672C93.8932 18.8828 94.0859 19.2682 94.4453 19.5547C94.8099 19.8359 95.2891 19.9766 95.8828 19.9766C96.4297 19.9766 96.8672 19.8672 97.1953 19.6484C97.5286 19.4245 97.6953 19.1276 97.6953 18.7578Z" fill="#3B3B3B"/>
</svg>
