<svg width="92" height="32" viewBox="0 0 92 32" fill="none" xmlns="http://www.w3.org/2000/svg">
<rect width="92" height="32" rx="4" fill="#E4E4E4"/>
<path d="M20 9.5L27.5 14L20 18.5L12.5 14L20 9.5Z" stroke="#3B3B3B" stroke-miterlimit="10" stroke-linecap="round" stroke-linejoin="round"/>
<path d="M26 17.1L27.5 18L20 22.5L12.5 18L14 17.1" stroke="#3B3B3B" stroke-miterlimit="10" stroke-linecap="round" stroke-linejoin="round"/>
<path d="M37.4609 21V9.625H40.6719C41.6615 9.625 42.5365 9.84375 43.2969 10.2812C44.0573 10.7188 44.6432 11.3411 45.0547 12.1484C45.4714 12.9557 45.6823 13.8828 45.6875 14.9297V15.6562C45.6875 16.7292 45.4792 17.6693 45.0625 18.4766C44.651 19.2839 44.0599 19.9036 43.2891 20.3359C42.5234 20.7682 41.6302 20.9896 40.6094 21H37.4609ZM38.9609 10.8594V19.7734H40.5391C41.6953 19.7734 42.5938 19.4141 43.2344 18.6953C43.8802 17.9766 44.2031 16.9531 44.2031 15.625V14.9609C44.2031 13.6693 43.8984 12.6667 43.2891 11.9531C42.6849 11.2344 41.8255 10.8698 40.7109 10.8594H38.9609ZM51.2422 21.1562C50.0964 21.1562 49.1641 20.7812 48.4453 20.0312C47.7266 19.276 47.3672 18.2682 47.3672 17.0078V16.7422C47.3672 15.9036 47.526 15.1562 47.8438 14.5C48.1667 13.8385 48.6146 13.3229 49.1875 12.9531C49.7656 12.5781 50.3906 12.3906 51.0625 12.3906C52.1615 12.3906 53.0156 12.7526 53.625 13.4766C54.2344 14.2005 54.5391 15.237 54.5391 16.5859V17.1875H48.8125C48.8333 18.0208 49.0755 18.6953 49.5391 19.2109C50.0078 19.7214 50.6016 19.9766 51.3203 19.9766C51.8307 19.9766 52.263 19.8724 52.6172 19.6641C52.9714 19.4557 53.2812 19.1797 53.5469 18.8359L54.4297 19.5234C53.7214 20.612 52.6589 21.1562 51.2422 21.1562ZM51.0625 13.5781C50.4792 13.5781 49.9896 13.7917 49.5938 14.2188C49.1979 14.6406 48.9531 15.2344 48.8594 16H53.0938V15.8906C53.0521 15.1562 52.8542 14.5885 52.5 14.1875C52.1458 13.7812 51.6667 13.5781 51.0625 13.5781ZM59.6094 19.9766C60.125 19.9766 60.5755 19.8203 60.9609 19.5078C61.3464 19.1953 61.5599 18.8047 61.6016 18.3359H62.9688C62.9427 18.8203 62.776 19.2812 62.4688 19.7188C62.1615 20.1562 61.75 20.5052 61.2344 20.7656C60.724 21.026 60.1823 21.1562 59.6094 21.1562C58.4583 21.1562 57.5417 20.7734 56.8594 20.0078C56.1823 19.237 55.8438 18.1849 55.8438 16.8516V16.6094C55.8438 15.7865 55.9948 15.0547 56.2969 14.4141C56.599 13.7734 57.0312 13.276 57.5938 12.9219C58.1615 12.5677 58.8307 12.3906 59.6016 12.3906C60.5495 12.3906 61.3359 12.6745 61.9609 13.2422C62.5911 13.8099 62.9271 14.5469 62.9688 15.4531H61.6016C61.5599 14.9062 61.3516 14.4583 60.9766 14.1094C60.6068 13.7552 60.1484 13.5781 59.6016 13.5781C58.8672 13.5781 58.2969 13.8438 57.8906 14.375C57.4896 14.901 57.2891 15.6641 57.2891 16.6641V16.9375C57.2891 17.9115 57.4896 18.6615 57.8906 19.1875C58.2917 19.7135 58.8646 19.9766 59.6094 19.9766ZM66.9531 17.0859L66.0469 18.0312V21H64.6016V9H66.0469V16.2578L66.8203 15.3281L69.4531 12.5469H71.2109L67.9219 16.0781L71.5938 21H69.8984L66.9531 17.0859ZM77.625 18.7578C77.625 18.3672 77.4766 18.0651 77.1797 17.8516C76.888 17.6328 76.375 17.4453 75.6406 17.2891C74.9115 17.1328 74.3307 16.9453 73.8984 16.7266C73.4714 16.5078 73.1536 16.2474 72.9453 15.9453C72.7422 15.6432 72.6406 15.2839 72.6406 14.8672C72.6406 14.1745 72.9323 13.5885 73.5156 13.1094C74.1042 12.6302 74.8542 12.3906 75.7656 12.3906C76.724 12.3906 77.5 12.638 78.0938 13.1328C78.6927 13.6276 78.9922 14.2604 78.9922 15.0312H77.5391C77.5391 14.6354 77.3698 14.2943 77.0312 14.0078C76.6979 13.7214 76.276 13.5781 75.7656 13.5781C75.2396 13.5781 74.8281 13.6927 74.5312 13.9219C74.2344 14.151 74.0859 14.4505 74.0859 14.8203C74.0859 15.1693 74.224 15.4323 74.5 15.6094C74.776 15.7865 75.2734 15.9557 75.9922 16.1172C76.7161 16.2786 77.3021 16.4714 77.75 16.6953C78.1979 16.9193 78.5286 17.1901 78.7422 17.5078C78.9609 17.8203 79.0703 18.2031 79.0703 18.6562C79.0703 19.4115 78.7682 20.0182 78.1641 20.4766C77.5599 20.9297 76.776 21.1562 75.8125 21.1562C75.1354 21.1562 74.5365 21.0365 74.0156 20.7969C73.4948 20.5573 73.0859 20.224 72.7891 19.7969C72.4974 19.3646 72.3516 18.8984 72.3516 18.3984H73.7969C73.8229 18.8828 74.0156 19.2682 74.375 19.5547C74.7396 19.8359 75.2188 19.9766 75.8125 19.9766C76.3594 19.9766 76.7969 19.8672 77.125 19.6484C77.4583 19.4245 77.625 19.1276 77.625 18.7578Z" fill="#3B3B3B"/>
</svg>
